
<svg xmlns="http://www.w3.org/2000/svg" viewBox="0 0 1200 300" preserveAspectRatio="xMidYMid slice">
  <!-- Flowing Diplomatic Curves - Background Layer -->
  <g id="diplomatic-waves" opacity="0.3">
    <path d="M0,200 Q150,180 300,190 T600,185 T900,190 T1200,185" 
          stroke="#494986" stroke-width="1.5" fill="none"/>
    <path d="M0,220 Q200,200 400,210 T800,205 T1200,210" 
          stroke="#494986" stroke-width="1" fill="none" opacity="0.7"/>
    <path d="M0,240 Q100,225 250,235 T500,230 T750,235 T1000,230 T1200,235" 
          stroke="#494986" stroke-width="0.8" fill="none" opacity="0.5"/>
  </g>

  <!-- Abstract Globe Elements -->
  <g id="globe-elements" opacity="0.4">
    <!-- Left Globe -->
    <g id="left-globe" transform="translate(150,120)">
      <circle cx="0" cy="0" r="25" stroke="#494986" stroke-width="1.2" fill="none"/>
      <ellipse cx="0" cy="0" rx="25" ry="12" stroke="#494986" stroke-width="0.8" fill="none"/>
      <ellipse cx="0" cy="0" rx="12" ry="25" stroke="#494986" stroke-width="0.8" fill="none"/>
      <path d="M-20,-15 Q0,-10 20,-15 M-20,0 Q0,5 20,0 M-20,15 Q0,10 20,15" 
            stroke="#494986" stroke-width="0.6" fill="none"/>
    </g>

    <!-- Center Globe -->
    <g id="center-globe" transform="translate(600,80)">
      <circle cx="0" cy="0" r="20" stroke="#494986" stroke-width="1" fill="none" opacity="0.8"/>
      <ellipse cx="0" cy="0" rx="20" ry="10" stroke="#494986" stroke-width="0.6" fill="none"/>
      <path d="M-15,-10 Q0,-5 15,-10 M-15,5 Q0,10 15,5" 
            stroke="#494986" stroke-width="0.5" fill="none"/>
    </g>

    <!-- Right Globe -->
    <g id="right-globe" transform="translate(1050,140)">
      <circle cx="0" cy="0" r="18" stroke="#494986" stroke-width="0.8" fill="none" opacity="0.6"/>
      <ellipse cx="0" cy="0" rx="18" ry="9" stroke="#494986" stroke-width="0.5" fill="none"/>
      <path d="M-12,-8 Q0,-3 12,-8 M-12,3 Q0,8 12,3" 
            stroke="#494986" stroke-width="0.4" fill="none"/>
    </g>
  </g>

  <!-- Left Olive Branch -->
  <g id="left-olive-branch" transform="translate(80,150)">
    <!-- Main stem -->
    <path d="M0,0 Q15,-20 25,-35 Q35,-50 40,-70" 
          stroke="#494986" stroke-width="2" fill="none"/>
    
    <!-- Left side leaves -->
    <ellipse cx="8" cy="-15" rx="8" ry="3" 
             stroke="#494986" stroke-width="1" fill="none" 
             transform="rotate(-30 8 -15)"/>
    <ellipse cx="12" cy="-25" rx="9" ry="3.5" 
             stroke="#494986" stroke-width="1" fill="none" 
             transform="rotate(-25 12 -25)"/>
    <ellipse cx="18" cy="-40" rx="7" ry="3" 
             stroke="#494986" stroke-width="1" fill="none" 
             transform="rotate(-20 18 -40)"/>
    <ellipse cx="25" cy="-55" rx="6" ry="2.5" 
             stroke="#494986" stroke-width="1" fill="none" 
             transform="rotate(-15 25 -55)"/>
    
    <!-- Right side leaves -->
    <ellipse cx="20" cy="-10" rx="8" ry="3" 
             stroke="#494986" stroke-width="1" fill="none" 
             transform="rotate(35 20 -10)"/>
    <ellipse cx="28" cy="-30" rx="9" ry="3.5" 
             stroke="#494986" stroke-width="1" fill="none" 
             transform="rotate(25 28 -30)"/>
    <ellipse cx="32" cy="-45" rx="7" ry="3" 
             stroke="#494986" stroke-width="1" fill="none" 
             transform="rotate(20 32 -45)"/>
    <ellipse cx="38" cy="-62" rx="5" ry="2" 
             stroke="#494986" stroke-width="1" fill="none" 
             transform="rotate(15 38 -62)"/>
  </g>

  <!-- Right Olive Branch -->
  <g id="right-olive-branch" transform="translate(1120,150) scale(-1,1)">
    <!-- Main stem -->
    <path d="M0,0 Q15,-20 25,-35 Q35,-50 40,-70" 
          stroke="#494986" stroke-width="2" fill="none"/>
    
    <!-- Left side leaves -->
    <ellipse cx="8" cy="-15" rx="8" ry="3" 
             stroke="#494986" stroke-width="1" fill="none" 
             transform="rotate(-30 8 -15)"/>
    <ellipse cx="12" cy="-25" rx="9" ry="3.5" 
             stroke="#494986" stroke-width="1" fill="none" 
             transform="rotate(-25 12 -25)"/>
    <ellipse cx="18" cy="-40" rx="7" ry="3" 
             stroke="#494986" stroke-width="1" fill="none" 
             transform="rotate(-20 18 -40)"/>
    <ellipse cx="25" cy="-55" rx="6" ry="2.5" 
             stroke="#494986" stroke-width="1" fill="none" 
             transform="rotate(-15 25 -55)"/>
    
    <!-- Right side leaves -->
    <ellipse cx="20" cy="-10" rx="8" ry="3" 
             stroke="#494986" stroke-width="1" fill="none" 
             transform="rotate(35 20 -10)"/>
    <ellipse cx="28" cy="-30" rx="9" ry="3.5" 
             stroke="#494986" stroke-width="1" fill="none" 
             transform="rotate(25 28 -30)"/>
    <ellipse cx="32" cy="-45" rx="7" ry="3" 
             stroke="#494986" stroke-width="1" fill="none" 
             transform="rotate(20 32 -45)"/>
    <ellipse cx="38" cy="-62" rx="5" ry="2" 
             stroke="#494986" stroke-width="1" fill="none" 
             transform="rotate(15 38 -62)"/>
  </g>

  <!-- Calligraphic Unity Lines -->
  <g id="unity-lines" opacity="0.5">
    <path d="M300,160 Q450,140 600,150 Q750,160 900,145" 
          stroke="#494986" stroke-width="1.5" fill="none"/>
    <path d="M250,180 Q400,165 550,175 Q700,185 850,170" 
          stroke="#494986" stroke-width="1" fill="none" opacity="0.8"/>
    <path d="M350,200 Q500,185 650,195 Q800,205 950,190" 
          stroke="#494986" stroke-width="0.8" fill="none" opacity="0.6"/>
  </g>

  <!-- Decorative Diplomatic Flourishes -->
  <g id="diplomatic-flourishes" opacity="0.3">
    <!-- Left flourish -->
    <path d="M200,100 Q220,90 240,100 Q260,110 280,100" 
          stroke="#494986" stroke-width="1" fill="none"/>
    <path d="M210,110 Q225,105 240,110" 
          stroke="#494986" stroke-width="0.8" fill="none"/>
    
    <!-- Right flourish -->
    <path d="M920,90 Q940,80 960,90 Q980,100 1000,90" 
          stroke="#494986" stroke-width="1" fill="none"/>
    <path d="M930,100 Q945,95 960,100" 
          stroke="#494986" stroke-width="0.8" fill="none"/>
    
    <!-- Center connecting elements -->
    <circle cx="500" cy="120" r="2" fill="#494986" opacity="0.6"/>
    <circle cx="550" cy="110" r="1.5" fill="#494986" opacity="0.4"/>
    <circle cx="650" cy="125" r="2" fill="#494986" opacity="0.5"/>
    <circle cx="700" cy="115" r="1.5" fill="#494986" opacity="0.3"/>
  </g>

  <!-- Communication Network Lines -->
  <g id="communication-network" opacity="0.2">
    <path d="M150,120 Q300,100 450,110 Q600,120 750,105 Q900,90 1050,100" 
          stroke="#494986" stroke-width="0.5" fill="none" stroke-dasharray="2,3"/>
    <path d="M100,160 Q250,140 400,150 Q550,160 700,145 Q850,130 1000,140" 
          stroke="#494986" stroke-width="0.5" fill="none" stroke-dasharray="1,2"/>
  </g>
</svg>
